<?xml version="1.0" standalone="no"?>
<!DOCTYPE svg PUBLIC "-//W3C//DTD SVG 1.1//EN" "http://www.w3.org/Graphics/SVG/1.1/DTD/svg11.dtd" >
<svg xmlns="http://www.w3.org/2000/svg">
<metadata></metadata>
<defs>
<font id="motiva_sans_extraboldregular" horiz-adv-x="1548" >
<font-face units-per-em="2048" ascent="1540" descent="-508" />
<missing-glyph horiz-adv-x="534" />
<glyph horiz-adv-x="2048" />
<glyph horiz-adv-x="2048" />
<glyph unicode="&#xd;" horiz-adv-x="2048" />
<glyph unicode=" "  horiz-adv-x="534" />
<glyph unicode="&#x09;" horiz-adv-x="534" />
<glyph unicode="&#xa0;" horiz-adv-x="534" />
<glyph unicode="!" horiz-adv-x="686" d="M143 168q0 99 59 150t142 51t141 -51t58 -150q0 -102 -58 -154.5t-141 -52.5t-142 52.5t-59 154.5zM162 1438h366l-43 -949h-282z" />
<glyph unicode="&#x22;" horiz-adv-x="966" d="M156 1442h260l-45 -455h-172zM549 1442h262l-45 -455h-174z" />
<glyph unicode="#" horiz-adv-x="1376" d="M39 375v190h280l41 316h-280v194h307l45 359h197l-45 -359h262l43 359h196l-43 -359h297v-194h-319l-39 -316h315v-190h-338l-45 -375h-196l45 375h-266l-47 -375h-201l49 375h-258zM520 565h264l39 316h-264z" />
<glyph unicode="$" horiz-adv-x="1198" d="M82 88l115 277q189 -97 360 -97q109 0 164 36.5t55 94.5q0 56 -62.5 97t-232.5 104q-183 68 -272.5 157.5t-89.5 235.5q0 175 108.5 280.5t294.5 131.5l-6 229h242l-8 -227q107 -13 198.5 -48t145.5 -83l-140 -248q-69 47 -155 76t-160 29q-77 0 -126.5 -31t-49.5 -82 q0 -57 72 -100q40 -25 165 -77l41 -18q222 -94 305.5 -179t83.5 -220q0 -186 -121 -308t-315 -149l8 -209h-243l8 207q-203 18 -385 121z" />
<glyph unicode="%" horiz-adv-x="1650" d="M49 1083q0 177 97 276t251 99q160 0 260.5 -99.5t100.5 -277.5q0 -174 -98.5 -271t-260.5 -97q-157 0 -253.5 97.5t-96.5 272.5zM236 0l976 1434h187l-975 -1434h-188zM274 1083q0 -194 125 -194q69 0 97 47t28 147q0 102 -28 150.5t-97 48.5q-125 0 -125 -199zM901 350 q0 177 97.5 276t252.5 99q159 0 260 -99.5t101 -277.5q0 -173 -99 -270.5t-260 -97.5q-158 0 -255 97.5t-97 272.5zM1128 350q0 -194 125 -194q68 0 96.5 47.5t28.5 146.5q0 100 -28.5 149.5t-96.5 49.5q-125 0 -125 -199z" />
<glyph unicode="&#x26;" horiz-adv-x="1552" d="M154 346q0 118 62.5 208.5t189.5 176.5l4 4q-89 84 -135 166t-46 189q0 170 113.5 274t312.5 104q183 0 299.5 -96t116.5 -242q0 -121 -50 -217.5t-167 -183.5l-8 -6l182 -164q2 4 6 11.5t6 11.5l129 249l250 -112l-92 -199q-43 -90 -80 -155l219 -199l-180 -199 l-205 178q-91 -89 -195.5 -129.5t-234.5 -40.5q-233 0 -365 97.5t-132 273.5zM489 383q0 -52 40.5 -83.5t113.5 -31.5q105 0 209 78l-238 207l-20 -16q-105 -79 -105 -154zM541 1081q0 -49 26.5 -89t83.5 -93l11 8q114 77 114 185q0 56 -33 81t-84 25q-56 0 -87 -31t-31 -86 z" />
<glyph unicode="'" horiz-adv-x="442" d="M59 1442h324l-45 -451h-238z" />
<glyph unicode="(" horiz-adv-x="782" d="M96 694q0 153 32 286.5t79 226.5t116.5 175t128.5 131t130 95l153 -140q-52 -47 -88.5 -83t-92.5 -111t-91 -150.5t-61.5 -189.5t-26.5 -240t26.5 -240.5t62 -191.5t90.5 -151t93 -112.5t88 -82.5l-153 -139q-72 48 -130 96t-127.5 131t-117 175.5t-79.5 226.5t-32 288z " />
<glyph unicode=")" horiz-adv-x="782" d="M45 -84q361 302 361 778q0 106 -17.5 203t-50.5 173.5t-67.5 137.5t-80.5 114t-76 83.5t-67 62.5l154 140q485 -326 485 -914q0 -593 -487 -917z" />
<glyph unicode="*" horiz-adv-x="919" d="M133 1110l170 76l-168 86l86 147l162 -108l-21 200h193l-25 -200l162 116l92 -167l-170 -74l172 -78l-94 -166l-162 115l25 -197h-193l21 197l-158 -115z" />
<glyph unicode="+" horiz-adv-x="1413" d="M203 616v185h413v440h187v-440h414v-185h-414v-440h-187v440h-413z" />
<glyph unicode="," horiz-adv-x="575" d="M129 174q0 77 48 116.5t112 39.5q69 0 123.5 -49t54.5 -152q0 -125 -63.5 -244.5t-172.5 -201.5l-96 75q108 101 148 242q-64 8 -109 54.5t-45 119.5z" />
<glyph unicode="-" horiz-adv-x="933" d="M121 487v269h690v-269h-690z" />
<glyph unicode="." horiz-adv-x="638" d="M150 137q0 84 50 128t117 44q71 0 121.5 -43.5t50.5 -128.5q0 -86 -50.5 -131t-121.5 -45q-67 0 -117 45t-50 131z" />
<glyph unicode="/" horiz-adv-x="757" d="M12 -98l492 1638h252l-486 -1638h-258z" />
<glyph unicode="0" horiz-adv-x="1445" d="M74 725q0 183 52 327.5t142.5 234t206 135.5t248.5 46t248.5 -46t206 -135.5t142.5 -234t52 -327.5q0 -151 -34 -276.5t-94 -213.5t-142 -149t-177.5 -90t-201.5 -29t-201.5 29t-177.5 90t-142 149t-94 213.5t-34 276.5zM432 725q0 -221 72.5 -341t218.5 -120 q145 0 218 120t73 341q0 212 -72.5 328t-218.5 116t-218.5 -116t-72.5 -328z" />
<glyph unicode="1" horiz-adv-x="1263" d="M84 1188l496 250h266v-1125h307v-313h-971v313h316v738l-289 -111z" />
<glyph unicode="2" horiz-adv-x="1335" d="M94 1309q215 159 512 159q164 0 289.5 -51t197.5 -153t72 -242q0 -135 -73.5 -247.5t-241.5 -256.5l-244 -203h602v-315h-1052v270l397 344q65 56 102 91.5t71 78t48 82t14 84.5q0 99 -70 148t-192 49q-163 0 -286 -86z" />
<glyph unicode="3" horiz-adv-x="1273" d="M63 141l144 246q143 -108 358 -108q130 0 199.5 48t69.5 130q0 84 -61 119.5t-191 35.5h-236v248h195q117 0 178 41.5t61 118.5q0 65 -55.5 105t-157.5 40q-178 0 -329 -98l-148 240q95 74 229.5 114.5t292.5 40.5q141 0 246.5 -28.5t165.5 -78t88.5 -110.5t28.5 -133 q0 -104 -59.5 -196t-174.5 -140v-10q138 -29 215.5 -119t77.5 -209q0 -215 -163.5 -339t-430.5 -124q-165 0 -309.5 44t-233.5 122z" />
<glyph unicode="4" horiz-adv-x="1378" d="M96 307v230l719 897h291v-859h201v-268h-201v-307h-350v307h-660zM434 575h336v422z" />
<glyph unicode="5" horiz-adv-x="1327" d="M150 100l116 269q159 -88 338 -88q115 0 186.5 53.5t71.5 148.5q0 90 -58 137.5t-157 47.5q-132 0 -246 -99l-217 115v754h967v-316h-635v-270q102 66 264 66q195 0 317 -114.5t122 -328.5q0 -226 -162 -363t-434 -137q-304 0 -473 125z" />
<glyph unicode="6" horiz-adv-x="1396" d="M90 705q0 152 34 277t95 212.5t145 147.5t183.5 88t212.5 28q300 0 491 -127l-157 -250q-53 34 -136 59t-172 25q-147 0 -241 -89.5t-107 -278.5q155 133 365 133q99 0 185.5 -29t153.5 -83t105.5 -140t38.5 -193q0 -221 -156 -365.5t-405 -144.5q-141 0 -256 44 t-200.5 132t-132 229t-46.5 325zM461 535q11 -120 76 -191.5t172 -71.5q94 0 155.5 53.5t61.5 139.5q0 88 -56 136t-147 48q-157 0 -262 -114z" />
<glyph unicode="7" horiz-adv-x="1153" d="M25 1122v316h1054v-271l-518 -1167h-368l507 1122h-675z" />
<glyph unicode="8" horiz-adv-x="1304" d="M74 401q0 117 67.5 212.5t173.5 142.5q-91 34 -154 116.5t-63 186.5q0 124 73 215.5t196 137.5t280 46q155 0 277.5 -46t195 -137.5t72.5 -215.5q0 -109 -54.5 -192t-148.5 -117q109 -40 176.5 -126t67.5 -202q0 -207 -161 -332t-425 -125q-260 0 -416.5 119.5 t-156.5 316.5zM424 446q0 -81 61 -131.5t164 -50.5q101 0 161 50.5t60 131.5q0 76 -62.5 126.5t-158.5 50.5q-98 0 -161.5 -50.5t-63.5 -126.5zM461 1016q0 -66 52.5 -106t133.5 -40t134 40t53 106q0 65 -51.5 105t-135.5 40t-135 -40t-51 -105z" />
<glyph unicode="9" horiz-adv-x="1284" d="M37 952q0 232 154 371t393 139q151 0 268.5 -42t203.5 -127.5t131.5 -224t45.5 -323.5q0 -165 -39 -297.5t-104.5 -219t-155 -145t-186.5 -83.5t-203 -25q-132 0 -244 26.5t-184 68.5l78 254q163 -60 337 -60q155 0 253.5 93t107.5 288q-74 -87 -157.5 -125.5 t-198.5 -38.5q-70 0 -137.5 15t-134 50.5t-116.5 88t-81 134.5t-31 183zM385 967q0 -94 57 -143.5t162 -49.5q80 0 155.5 41.5t106.5 112.5q-11 114 -89 175.5t-177 61.5q-97 0 -156 -54.5t-59 -143.5z" />
<glyph unicode=":" horiz-adv-x="634" d="M121 166q0 98 57.5 147t138.5 49q83 0 140 -48.5t57 -147.5q0 -101 -57.5 -153t-139.5 -52q-80 0 -138 52.5t-58 152.5zM121 901q0 96 58 146.5t138 50.5q82 0 139.5 -50t57.5 -147q0 -101 -56.5 -150t-140.5 -49q-81 0 -138.5 49t-57.5 150z" />
<glyph unicode=";" horiz-adv-x="634" d="M141 174q0 77 47.5 116.5t110.5 39.5q70 0 125 -49.5t55 -151.5q0 -125 -64 -244.5t-173 -201.5l-95 75q48 46 88 110t58 132q-64 8 -108 54.5t-44 119.5zM145 926q0 82 49.5 127t114.5 45q70 0 120 -44.5t50 -127.5q0 -86 -49.5 -130t-120.5 -44q-66 0 -115 44t-49 130z " />
<glyph unicode="&#x3c;" horiz-adv-x="1028" d="M45 504v186l762 469l104 -190l-610 -373l629 -401l-121 -166z" />
<glyph unicode="=" horiz-adv-x="1353" d="M215 272v183h946v-183h-946zM215 668v182h946v-182h-946z" />
<glyph unicode="&#x3e;" horiz-adv-x="1026" d="M96 195l629 401l-610 373l106 190l760 -469v-186l-762 -475z" />
<glyph unicode="?" horiz-adv-x="1067" d="M39 1323q82 62 211 98.5t268 36.5q223 0 349 -94.5t126 -247.5q0 -57 -20 -107t-52.5 -88t-72.5 -74l-80 -72t-74 -75t-57 -91.5t-27 -112.5h-241q0 98 26 176.5t63 127t74 88t63 80.5t26 83q0 58 -49 89t-138 31q-150 0 -272 -77zM295 170q0 88 52 139t136 51 q83 0 136 -51t53 -139q0 -89 -53 -142t-136 -53q-84 0 -136 52.5t-52 142.5z" />
<glyph unicode="@" horiz-adv-x="1921" d="M82 471q0 266 122.5 467.5t342.5 309.5t506 108q184 0 333 -51.5t248 -145t152 -223t53 -285.5q0 -163 -53 -288.5t-164.5 -201t-267.5 -75.5q-163 0 -244 100q-94 -69 -236 -69q-61 0 -115.5 21t-99 63t-70.5 114t-26 166q0 209 127 321.5t342 112.5q153 0 318 -61 l-50 -403q-6 -74 17.5 -110t62.5 -36q91 0 147 91t56 233q0 248 -136.5 379t-406.5 131q-207 0 -365 -78.5t-247.5 -232t-89.5 -361.5q0 -279 162 -431.5t430 -152.5q154 0 315 58l74 -217q-197 -72 -408 -72q-129 0 -245 26t-224.5 87t-187 153t-125.5 233.5t-47 319.5z M815 485q0 -76 32 -116.5t79 -40.5q77 0 129 65q0 3 1 8.5t1 8.5l39 284q-30 15 -101 15q-85 0 -132.5 -62t-47.5 -162z" />
<glyph unicode="A" d="M57 0l541 1434h334l559 -1434h-373l-88 254h-528l-84 -254h-361zM592 524h346l-176 510z" />
<glyph unicode="B" horiz-adv-x="1376" d="M129 0v1434h559q259 0 381.5 -96t122.5 -269q0 -204 -184 -303q266 -87 266 -350q0 -191 -143 -303.5t-383 -112.5h-619zM479 289h234q95 0 143.5 44t48.5 116q0 147 -186 147h-240v-307zM479 850h193q86 0 132 40t46 114q0 139 -184 139h-187v-293z" />
<glyph unicode="C" horiz-adv-x="1378" d="M104 721v6q0 178 55 320q56 144 155.5 235t231.5 138.5t288 47.5q141 0 271.5 -37t209.5 -100l-160 -272q-130 92 -307 92q-79 0 -146.5 -27t-119.5 -79t-81.5 -135.5t-29.5 -188.5q0 -109 30.5 -194t83.5 -137q53 -54 120 -80q65 -26 137 -25h6q178 0 326 118l167 -247 q-88 -84 -226 -137.5t-302 -53.5q-141 0 -267.5 49.5t-225.5 141.5t-157.5 238.5t-58.5 326.5z" />
<glyph unicode="D" horiz-adv-x="1474" d="M129 0v1434h473q166 0 306.5 -47t244 -135.5t161.5 -223.5t58 -303q0 -225 -101 -391t-274 -250t-395 -84h-473zM479 309h146q181 0 280 102t99 314q0 210 -97.5 303.5t-281.5 93.5h-146v-813z" />
<glyph unicode="E" horiz-adv-x="1234" d="M129 0v1434h987v-293h-643v-271h549v-295h-549v-280h643v-295h-987z" />
<glyph unicode="F" horiz-adv-x="1171" d="M129 0v1432h936v-293h-592v-340h516v-295h-516v-504h-344z" />
<glyph unicode="G" horiz-adv-x="1519" d="M104 707q0 148 39 273t108 214t162.5 151.5t202 92.5t226.5 30q312 0 524 -157l-164 -256q-150 96 -342 96q-174 0 -281.5 -110t-107.5 -320q0 -207 101.5 -319.5t263.5 -112.5q148 0 233 63v230h-324v274h652v-680q-100 -97 -248 -153t-330 -56q-107 0 -208 26.5 t-194 85t-162 143t-110 209.5t-41 276z" />
<glyph unicode="H" horiz-adv-x="1550" d="M129 0v1434h344v-574h608v574h340v-1434h-340v567h-608v-567h-344z" />
<glyph unicode="I" horiz-adv-x="649" d="M154 0v1434h342v-1434h-342z" />
<glyph unicode="J" horiz-adv-x="993" d="M61 -2l27 283q65 -15 164 -15q127 0 194.5 56.5t67.5 187.5v924h350v-924q0 -125 -26.5 -220.5t-72.5 -157t-113.5 -100.5t-142 -55t-165.5 -16q-161 0 -283 37z" />
<glyph unicode="K" horiz-adv-x="1464" d="M129 0v1434h354v-555l461 555h459l-586 -633l625 -801h-445l-424 537l-90 -99v-438h-354z" />
<glyph unicode="L" horiz-adv-x="1165" d="M129 0v1434h344v-1125h651v-309h-995z" />
<glyph unicode="M" horiz-adv-x="1810" d="M129 0v1434h326l456 -979l441 979h329v-1434h-329v805l-353 -754h-196l-346 748v-799h-328z" />
<glyph unicode="N" horiz-adv-x="1519" d="M129 0v1434h291l620 -846v846h351v-1434h-289l-629 836v-836h-344z" />
<glyph unicode="O" horiz-adv-x="1665" d="M104 731q0 150 40.5 273.5t109 208.5t162 143t198 85t217.5 27q114 0 218.5 -27t198.5 -85t163 -143t109.5 -208.5t40.5 -273.5q0 -153 -40.5 -280.5t-109.5 -216t-162.5 -150t-199 -90.5t-218.5 -29t-217.5 29t-197.5 90.5t-162 150t-109.5 216t-40.5 280.5zM471 727 q0 -213 99.5 -328.5t260.5 -115.5t261 115t100 329q0 210 -99 317t-262 107t-261.5 -107t-98.5 -317z" />
<glyph unicode="P" horiz-adv-x="1267" d="M129 0v1434h524q276 0 424 -134t148 -356q0 -102 -36.5 -190t-106.5 -155t-180.5 -105.5t-248.5 -38.5h-180v-455h-344zM473 748h174q102 0 156.5 55t54.5 155q0 88 -56 135.5t-159 47.5h-170v-393z" />
<glyph unicode="Q" horiz-adv-x="1665" d="M104 731q0 150 40.5 273.5t109 208.5t162 143t198 85t217.5 27q114 0 218.5 -27t198.5 -85t163 -143t109.5 -208.5t40.5 -273.5q0 -271 -118 -450.5t-313 -257.5l357 -134l-160 -249l-598 331q-127 16 -237.5 70.5t-198.5 146t-138.5 231.5t-50.5 312zM471 727 q0 -213 99.5 -328.5t260.5 -115.5t261 115t100 329q0 210 -99 317t-262 107t-261.5 -107t-98.5 -317z" />
<glyph unicode="R" horiz-adv-x="1396" d="M129 0v1434h553q305 0 450.5 -120t145.5 -339q0 -320 -270 -447l333 -528h-383l-276 461h-31h-178v-461h-344zM473 754h201q110 0 173.5 51.5t63.5 150.5q0 93 -58 139t-187 46h-193v-387z" />
<glyph unicode="S" horiz-adv-x="1241" d="M82 109l102 284q198 -98 394 -98q112 0 170.5 35t58.5 98q0 15 -3 27t-11.5 23t-17.5 19.5t-27.5 18t-33.5 16t-44 16.5t-51.5 17.5t-62.5 20.5t-71 24q-192 64 -287.5 159.5t-95.5 254.5q0 138 70.5 237.5t191 148t277.5 48.5q152 0 283.5 -41t208.5 -102l-146 -256 q-69 50 -161.5 79t-172.5 29q-94 0 -143 -33t-49 -96q0 -17 4 -30.5t14 -26t20.5 -22t30.5 -19.5t37 -17.5t48 -18t54 -17.5t63.5 -20t70.5 -23q190 -62 280.5 -151.5t90.5 -246.5q0 -225 -160.5 -348t-425.5 -123q-123 0 -260 33.5t-246 100.5z" />
<glyph unicode="T" horiz-adv-x="1359" d="M86 1141v293h1188v-293h-422v-1141h-344v1141h-422z" />
<glyph unicode="U" horiz-adv-x="1447" d="M129 520v914h344v-902q0 -122 64.5 -185.5t187.5 -63.5q120 0 185 64t65 185v902h344v-914q0 -147 -46.5 -257t-130 -173.5t-187.5 -94t-230 -30.5q-101 0 -187.5 18.5t-163 60.5t-130 105t-84.5 157.5t-31 213.5z" />
<glyph unicode="V" horiz-adv-x="1499" d="M31 1434h379l346 -1031l336 1031h378l-546 -1434h-349z" />
<glyph unicode="W" horiz-adv-x="2054" d="M4 1434h369l256 -879l282 879h254l289 -887l246 887h350l-467 -1434h-246l-307 877l-307 -877h-250z" />
<glyph unicode="X" horiz-adv-x="1452" d="M0 0l514 739l-494 695h412l270 -428l261 428h421l-507 -682l561 -752h-412l-324 489l-301 -489h-401z" />
<glyph unicode="Y" horiz-adv-x="1355" d="M0 1434h397l285 -531l287 531h370l-497 -865v-569h-344v571z" />
<glyph unicode="Z" horiz-adv-x="1308" d="M72 0v213l669 928h-635v293h1084v-205l-692 -936h733v-293h-1159z" />
<glyph unicode="[" horiz-adv-x="665" d="M117 -279v1881h489v-228h-231v-1423h231v-230h-489z" />
<glyph unicode="\" horiz-adv-x="847" d="M-72 1540h252l479 -1638h-253z" />
<glyph unicode="]" horiz-adv-x="665" d="M59 -49h232v1423h-232v228h490v-1881h-490v230z" />
<glyph unicode="^" horiz-adv-x="1351" d="M98 825l506 727h223l506 -727h-344l-274 398l-271 -398h-346z" />
<glyph unicode="_" horiz-adv-x="1415" d="M111 -4h1181v-270h-1181v270z" />
<glyph unicode="`" horiz-adv-x="772" d="M141 1516h365l125 -306h-185z" />
<glyph unicode="a" horiz-adv-x="1202" d="M84 313q0 158 115.5 238t306.5 80q116 0 209 -19v62q0 96 -46.5 133t-138.5 37q-173 0 -278 -88l-123 200q85 73 205 112.5t237 39.5q471 0 471 -406v-397q0 -76 54 -76h57l-25 -213q-49 -39 -163 -39q-147 0 -197 109q-125 -121 -307 -121q-164 0 -270.5 88.5 t-106.5 259.5zM387 324q0 -64 39 -91.5t98 -27.5q141 0 195 102v113q-68 20 -174 20q-158 0 -158 -116z" />
<glyph unicode="b" horiz-adv-x="1267" d="M121 0v1540h328v-555h6q102 123 280 123q201 0 326 -146t125 -409q0 -268 -138 -428t-356 -160q-180 0 -297 141h-10l-51 -106h-213zM449 328q64 -74 176 -74q104 0 165.5 79.5t61.5 213.5q0 126 -58 193t-157 67q-111 0 -188 -86v-393z" />
<glyph unicode="c" horiz-adv-x="1093" d="M82 541q0 133 44 242t118 179t170 108t202 38q246 0 398 -131l-121 -227q-100 77 -227 77q-112 0 -184 -74.5t-72 -209.5q0 -133 72.5 -214t181.5 -81q136 0 241 88l135 -213q-155 -158 -411 -158q-111 0 -210 39.5t-174 112t-119 182.5t-44 242z" />
<glyph unicode="d" horiz-adv-x="1265" d="M82 541q0 114 27 209.5t72.5 160.5t106 110t127.5 66t138 21q153 0 264 -90v522h328v-1540h-234l-39 123h-4q-122 -158 -311 -158q-68 0 -134 20t-128.5 65.5t-109 111t-75 163.5t-28.5 216zM414 545q0 -131 63.5 -205t151.5 -74q59 0 108.5 31.5t79.5 85.5v338 q-66 88 -180 88q-99 0 -161 -68t-62 -196z" />
<glyph unicode="e" horiz-adv-x="1173" d="M82 532q0 254 145 415t377 161q123 0 221 -42.5t158 -114t91.5 -159.5t31.5 -186q0 -99 -16 -170h-682q40 -209 254 -209q150 0 274 99l123 -215q-178 -146 -445 -146q-113 0 -208.5 35.5t-168.5 104t-114 178t-41 249.5zM406 641h399q-4 103 -55 159t-138 56t-139.5 -51 t-66.5 -164z" />
<glyph unicode="f" horiz-adv-x="776" d="M43 795v278h139v152q0 164 102.5 263t297.5 99q139 0 211 -37l-50 -233q-52 14 -110 14q-123 0 -123 -119v-139h231v-278h-231v-795h-328v795h-139z" />
<glyph unicode="g" horiz-adv-x="1265" d="M82 569q0 127 39.5 231t105 170.5t149 102t173.5 35.5q197 0 305 -135h12l52 104h227v-989q0 -141 -39.5 -245.5t-113 -168t-172 -94.5t-222.5 -31q-130 0 -249 34t-197 91l108 244q129 -90 311 -90q119 0 189.5 49.5t70.5 149.5v110q-62 -54 -126 -76t-144 -22 q-211 0 -345 143t-134 387zM416 573q0 -116 58.5 -178.5t154.5 -62.5q128 0 190 102v291q-78 82 -192 82q-92 0 -151.5 -61.5t-59.5 -172.5z" />
<glyph unicode="h" horiz-adv-x="1261" d="M121 0v1540h325v-592q136 154 330 154q365 0 365 -391v-711h-328v659q0 75 -39 112.5t-98 37.5q-66 0 -119.5 -36t-107.5 -116v-657h-328z" />
<glyph unicode="i" horiz-adv-x="641" d="M129 1372q0 92 55 139.5t133 47.5q82 0 138.5 -47.5t56.5 -139.5t-56.5 -139t-138.5 -47q-78 0 -133 47t-55 139zM156 0v1073h327v-1073h-327z" />
<glyph unicode="j" horiz-adv-x="645" d="M-176 -395l63 245q66 -20 129 -20q77 0 110.5 29t33.5 104v1110h327v-1151q0 -159 -113 -266t-286 -107q-167 0 -264 56zM123 1372q0 92 55 139.5t133 47.5q81 0 137 -47.5t56 -139.5t-56 -139t-137 -47q-78 0 -133 47t-55 139z" />
<glyph unicode="k" horiz-adv-x="1206" d="M121 0v1540h328v-856l301 389h395l-391 -434l450 -639h-385l-274 408l-96 -109v-299h-328z" />
<glyph unicode="l" horiz-adv-x="608" d="M139 0v1540h328v-1540h-328z" />
<glyph unicode="m" horiz-adv-x="1871" d="M121 0v1077h258l27 -149h8q59 94 138.5 134t184.5 40q224 0 307 -191q61 95 147 143t212 48q158 0 253 -98.5t95 -264.5v-739h-336v690q0 60 -28.5 91.5t-79.5 31.5q-136 0 -201 -147v-666h-338v692q0 61 -29.5 91t-81.5 30q-127 0 -198 -147v-666h-338z" />
<glyph unicode="n" horiz-adv-x="1261" d="M121 0v1073h221l51 -155h10q77 99 163.5 144.5t199.5 45.5q174 0 274.5 -98t100.5 -275v-735h-328v627q0 90 -34.5 128t-98.5 38q-122 0 -231 -148v-645h-328z" />
<glyph unicode="o" horiz-adv-x="1286" d="M82 537q0 116 31 211.5t84 161.5t125.5 111t153 66t167.5 21t167.5 -21t153 -66t125.5 -111t84 -161.5t31 -211.5q0 -144 -47 -256t-127 -179.5t-178.5 -102t-208.5 -34.5t-208.5 34.5t-178.5 102t-127 179.5t-47 256zM414 537q0 -136 59.5 -209.5t169.5 -73.5 q109 0 169 73.5t60 209.5t-60 209t-169 73q-110 0 -169.5 -73t-59.5 -209z" />
<glyph unicode="p" horiz-adv-x="1247" d="M121 -422v1499h231l56 -133h4q66 81 139 117.5t170 36.5q86 0 165 -35.5t141.5 -100.5t100 -167t37.5 -226q0 -281 -144.5 -442.5t-369.5 -161.5q-127 0 -202 47v-434h-328zM449 279q57 -48 145 -48q107 0 172 82.5t65 223.5q0 133 -54 202.5t-144 69.5q-104 0 -184 -107 v-423z" />
<glyph unicode="q" horiz-adv-x="1275" d="M82 537q0 114 30.5 210.5t80 161.5t113.5 111t131.5 67t133.5 21q182 0 291 -131h4l54 100h235v-1499h-336v449q-103 -62 -246 -62q-211 0 -351 158.5t-140 413.5zM420 537q0 -71 20.5 -127t53.5 -88.5t70.5 -49t76.5 -16.5q105 0 178 61v400q-70 94 -176 94 q-95 0 -159 -71t-64 -203z" />
<glyph unicode="r" horiz-adv-x="866" d="M121 0v1073h254l49 -160h6q51 108 116.5 151.5t151.5 43.5q92 0 156 -43l-63 -295q-69 33 -111 33q-157 0 -227 -219v-584h-332z" />
<glyph unicode="s" horiz-adv-x="1005" d="M86 80l76 246q127 -82 297 -82q76 0 119 23.5t43 64.5q0 22 -12 37t-39 25.5t-54.5 17.5t-73 19t-80.5 24q-133 46 -198.5 120t-65.5 191q0 159 118 250.5t319 91.5q113 0 215 -29.5t172 -81.5l-93 -221q-60 36 -139 57t-145 21q-62 0 -95.5 -21t-33.5 -59 q0 -11 2.5 -20.5t9.5 -17.5t14.5 -14.5t21 -12.5t24.5 -10.5t31.5 -10.5t35 -10t40.5 -11t44 -12q154 -43 231.5 -114t77.5 -201q0 -120 -61.5 -206.5t-165 -127.5t-236.5 -41q-120 0 -225.5 33t-173.5 82z" />
<glyph unicode="t" horiz-adv-x="909" d="M53 795v278h156v105l139 168h191v-273h262v-278h-262v-449q0 -86 82 -86q64 0 137 25l78 -230q-140 -90 -312 -90q-158 0 -236.5 74t-78.5 237v519h-156z" />
<glyph unicode="u" horiz-adv-x="1245" d="M121 354v719h325v-643q0 -88 36.5 -125t103.5 -37q133 0 213 150v655h325v-1073h-219l-59 141q-59 -78 -138 -122t-202 -44q-183 0 -284 100.5t-101 278.5z" />
<glyph unicode="v" horiz-adv-x="1185" d="M8 1073l354 4l226 -723l225 719h365l-445 -1073h-293z" />
<glyph unicode="w" horiz-adv-x="1619" d="M8 1073h320l172 -641l213 641h205l206 -645l170 645h318l-391 -1073h-205l-213 614l-234 -614h-202z" />
<glyph unicode="x" horiz-adv-x="1077" d="M-14 0v12l379 537l-379 510v14h389l162 -303l168 303h362v-12l-342 -512l356 -537v-12h-364l-182 315l-168 -315h-381z" />
<glyph unicode="y" horiz-adv-x="1255" d="M33 1077h342l252 -755l229 755h354l-405 -1147q-68 -192 -174 -281t-269 -89q-98 0 -159.5 11t-128.5 32l57 243q83 -26 170 -26q48 0 89.5 27t64.5 85l14 33z" />
<glyph unicode="z" horiz-adv-x="1026" d="M78 0v215l446 584h-434v274h846v-223l-465 -574h490v-276h-883z" />
<glyph unicode="{" horiz-adv-x="823" d="M127 614v201q87 6 137.5 54.5t50.5 142.5v280q0 169 120.5 267t330.5 98v-189q-98 -8 -151.5 -57t-53.5 -141v-348q0 -75 -49 -130.5t-109 -72.5v-4q59 -19 108.5 -76.5t49.5 -128.5v-350q0 -90 54.5 -141.5t150.5 -57.5v-186q-213 0 -332 96.5t-119 265.5v283 q0 98 -48 143.5t-140 50.5z" />
<glyph unicode="|" horiz-adv-x="475" d="M139 -215v1901h197v-1901h-197z" />
<glyph unicode="}" horiz-adv-x="815" d="M49 -39v-186q213 0 332 96.5t119 265.5v283q0 98 48 143.5t140 50.5v201q-87 6 -137.5 54.5t-50.5 142.5v280q0 169 -120.5 267t-330.5 98v-189q98 -8 151.5 -57t53.5 -141v-348q0 -75 49 -130.5t109 -72.5v-4q-59 -19 -108.5 -76.5t-49.5 -128.5v-350 q0 -90 -54.5 -141.5t-150.5 -57.5z" />
<glyph unicode="~" horiz-adv-x="1236" d="M100 444q28 178 115.5 263.5t210.5 85.5q64 0 176 -36t172 -36q32 0 68.5 24.5t46.5 55.5h266q-16 -94 -54 -164.5t-88.5 -109.5t-105 -57.5t-112.5 -18.5t-176.5 35.5t-169.5 35.5q-71 0 -107 -78h-242z" />
<glyph unicode="&#xa1;" horiz-adv-x="561" d="M123 905q0 103 58.5 154t142.5 51q83 0 140.5 -51t57.5 -154q0 -98 -58 -150.5t-140 -52.5t-141.5 52.5t-59.5 150.5zM147 -367l43 949h283l43 -949h-369z" />
<glyph unicode="&#xa2;" horiz-adv-x="1116" d="M82 729q0 121 36.5 222.5t99.5 171t145.5 113t177.5 56.5l-13 207h193l-12 -207q184 -21 305 -127l-121 -227q-101 78 -227 78q-112 0 -184 -75t-72 -210q0 -133 72.5 -214t181.5 -81q136 0 241 88l135 -213q-125 -128 -317 -151l14 -189h-194l12 187q-99 12 -184.5 57 t-150 116t-101.5 174t-37 224z" />
<glyph unicode="&#xa3;" horiz-adv-x="1228" d="M70 178q49 40 71 63t37 60.5t15 91.5v232h-119v168h119v225q0 112 35 198t98.5 139.5t147.5 81t185 27.5q134 0 233.5 -23.5t192.5 -78.5l-153 -258q-101 65 -230 65q-91 0 -135.5 -45t-44.5 -155v-176h355v-168h-355v-152q0 -41 -0.5 -57t-4 -46.5t-11.5 -46t-24 -35 t-40 -34.5q58 14 121 14q41 0 109.5 -9t120.5 -9q78 0 180 20l53 -264q-100 -41 -274 -41q-76 0 -186.5 14.5t-170.5 14.5q-139 0 -250 -27z" />
<glyph unicode="&#xa4;" horiz-adv-x="1445" d="M82 240l174 174q-84 127 -84 305q0 187 94 321l-182 181l137 135l187 -187q137 82 313 82q180 0 319 -86l189 189l135 -135l-184 -185q90 -134 90 -315q0 -174 -82 -303l176 -176l-135 -138l-176 177q-143 -93 -332 -93q-185 0 -328 93l-176 -177zM494 719 q0 -115 60.5 -178.5t166.5 -63.5t166.5 63.5t60.5 178.5q0 116 -60 179t-167 63t-167 -63t-60 -179z" />
<glyph unicode="&#xa5;" horiz-adv-x="1271" d="M-33 1434h391l289 -564l289 564h371l-394 -637h267v-170h-371l-2 -2v-129h373v-168h-373v-328h-342v328h-375v168h375v131h-375v170h270z" />
<glyph unicode="&#xa6;" horiz-adv-x="452" d="M129 29v1407h195v-1407h-195z" />
<glyph unicode="&#xa7;" horiz-adv-x="1103" d="M150 68l83 225q49 -31 135 -51.5t162 -20.5q87 0 131 20t44 68q0 24 -14 41t-45.5 29t-62 19.5t-86 20t-94.5 23.5q-115 36 -173 99.5t-58 171.5q0 76 37.5 136.5t107.5 92.5q-65 36 -104 97t-39 141q0 133 110 210.5t298 77.5q219 0 364 -69l-82 -225q-128 43 -256 43 q-145 0 -145 -87q0 -24 12 -40.5t51 -31.5t61.5 -21t91.5 -22q8 -2 13 -3t12 -3t13 -3q140 -33 213.5 -96t73.5 -177q0 -154 -158 -233q80 -30 124 -90.5t44 -135.5q0 -135 -117.5 -220t-312.5 -85q-260 0 -434 99zM432 719q0 -65 41 -97t113 -32q153 0 153 129 q0 59 -41.5 94t-111.5 35q-69 0 -111.5 -35.5t-42.5 -93.5z" />
<glyph unicode="&#xa8;" horiz-adv-x="772" d="M39 1368q0 77 41 113.5t106 36.5q60 0 99 -36.5t39 -113.5q0 -73 -40 -109t-98 -36q-65 0 -106 36t-41 109zM449 1368q0 77 41 113.5t104 36.5q61 0 100 -36.5t39 -113.5q0 -72 -39.5 -108.5t-99.5 -36.5q-62 0 -103.5 36.5t-41.5 108.5z" />
<glyph unicode="&#xa9;" horiz-adv-x="1656" d="M82 715q0 169 60 311t162.5 236.5t238 147t286.5 52.5t286.5 -52.5t238 -146.5t163 -236.5t60.5 -311.5q0 -168 -60.5 -310.5t-163 -237t-238.5 -147.5t-286 -53q-151 0 -286.5 53t-238 147.5t-162.5 237t-60 310.5zM256 715q0 -262 160.5 -420t412.5 -158 q251 0 411.5 158t160.5 420q0 131 -43 240t-119 182.5t-181.5 114t-228.5 40.5q-250 0 -411.5 -160t-161.5 -417zM451 721q0 95 31 170t84.5 121.5t122 71t147.5 24.5q144 0 262 -78l-68 -139q-86 57 -188 57q-96 0 -155.5 -57t-59.5 -158q0 -106 61 -167.5t162 -61.5 q104 0 174 59l80 -145q-52 -42 -113.5 -65t-152.5 -23q-169 0 -278 105.5t-109 285.5z" />
<glyph unicode="&#xaa;" horiz-adv-x="794" d="M55 946q0 94 66.5 151.5t175.5 57.5q91 0 156 -12v37q0 80 -115 80q-104 0 -176 -46l-76 150q112 86 285 86q303 0 303 -227v-242q0 -55 51 -55h31l-11 -181q-59 -16 -106 -16q-61 0 -102.5 21.5t-57.5 56.5q-74 -78 -203 -78q-94 0 -157.5 60.5t-63.5 156.5zM256 952 q0 -30 23.5 -48.5t60.5 -18.5q38 0 67 16t44 39v68q-52 10 -101 10q-44 0 -69 -17t-25 -49z" />
<glyph unicode="&#xab;" horiz-adv-x="1126" d="M45 518l344 424l168 -151l-238 -271l238 -274l-160 -150zM520 518l346 424l164 -151l-235 -271l235 -274l-158 -150z" />
<glyph unicode="&#xac;" horiz-adv-x="1320" d="M145 668v184h1043v-590h-172v406h-871z" />
<glyph unicode="&#xad;" horiz-adv-x="933" d="M121 487v269h690v-269h-690z" />
<glyph unicode="&#xae;" horiz-adv-x="1656" d="M82 715q0 169 60 311t162.5 236.5t238 147t286.5 52.5t286.5 -52.5t238 -146.5t163 -236.5t60.5 -311.5q0 -168 -60.5 -310.5t-163 -237t-238.5 -147.5t-286 -53q-151 0 -286.5 53t-238 147.5t-162.5 237t-60 310.5zM256 715q0 -262 160.5 -420t412.5 -158 q251 0 411.5 158t160.5 420q0 131 -43 240t-119 182.5t-181.5 114t-228.5 40.5q-250 0 -411.5 -160t-161.5 -417zM569 358v742h281q127 0 196.5 -64t69.5 -162q0 -71 -34.5 -123t-94.5 -77l172 -316h-182l-135 269h-117v-269h-156zM729 766h113q48 0 74 25.5t26 68.5 q0 88 -106 88h-107v-182z" />
<glyph unicode="&#xaf;" horiz-adv-x="772" d="M100 1278v156h572v-156h-572z" />
<glyph unicode="&#xb0;" horiz-adv-x="847" d="M70 1096q0 84 30 151t80.5 108t113 62t130.5 21q67 0 129 -21t113 -62t81.5 -108t30.5 -151q0 -83 -30.5 -150t-81.5 -107.5t-113 -61.5t-129 -21q-68 0 -130.5 21t-113 61.5t-80.5 107t-30 150.5zM295 1096q0 -64 35 -99.5t94 -35.5q60 0 95.5 35.5t35.5 99.5 q0 66 -35.5 102.5t-95.5 36.5t-94.5 -36.5t-34.5 -102.5z" />
<glyph unicode="&#xb1;" horiz-adv-x="1193" d="M98 10v185h1016v-185h-1016zM98 809v184h414v441h186v-441h416v-184h-416v-438h-186v438h-414z" />
<glyph unicode="&#xb4;" horiz-adv-x="772" d="M143 1210l123 306h365l-303 -306h-185z" />
<glyph unicode="&#xb6;" horiz-adv-x="1067" d="M106 1079q0 355 412 355h420v-1434h-186v1241h-125v-1241h-185v717q-157 30 -246.5 122t-89.5 240z" />
<glyph unicode="&#xb7;" horiz-adv-x="520" d="M96 608q0 93 57.5 146t135.5 53q83 0 139.5 -52.5t56.5 -146.5q0 -95 -56.5 -146.5t-139.5 -51.5q-78 0 -135.5 52t-57.5 146z" />
<glyph unicode="&#xb8;" horiz-adv-x="772" d="M199 -143l71 147h152l-53 -104q98 13 152 -32.5t54 -119.5q0 -103 -80 -166t-204 -74l-58 132q84 16 116 39.5t32 56.5q0 17 -11 29t-28 12q-20 0 -39 -13z" />
<glyph unicode="&#xba;" horiz-adv-x="825" d="M49 1087q0 120 52.5 204t133 121.5t179.5 37.5q68 0 131 -22t115.5 -65t84 -114.5t31.5 -161.5t-31.5 -161.5t-84 -114t-115.5 -64.5t-131 -22q-73 0 -137.5 22t-116 65t-81.5 113.5t-30 161.5zM283 1087q0 -76 36 -114.5t95 -38.5q55 0 91 39t36 114q0 74 -36.5 114 t-90.5 40q-58 0 -94.5 -39.5t-36.5 -114.5z" />
<glyph unicode="&#xbb;" horiz-adv-x="1128" d="M96 246l234 274l-234 271l164 151l346 -424l-352 -422zM573 246l234 274l-234 271l166 151l344 -424l-352 -422z" />
<glyph unicode="&#xbc;" horiz-adv-x="2254" d="M127 1329l279 115h163v-647h181v-191h-592v191h180v413l-148 -47zM711 -289l618 1876h178l-616 -1876h-180zM1454 150v167l391 508h209v-497h129v-178h-129v-164h-221v164h-379zM1665 328h166v229z" />
<glyph unicode="&#xbd;" horiz-adv-x="2254" d="M127 1329l279 115h163v-647h181v-191h-592v191h180v413l-148 -47zM711 -289l618 1876h178l-616 -1876h-180zM1479 743q151 99 336 99q151 0 237 -68t86 -186q0 -156 -194 -293l-150 -105h360v-204h-643v190l236 178q63 49 95 90.5t32 87.5t-31 70.5t-86 24.5 q-93 0 -190 -60z" />
<glyph unicode="&#xbe;" horiz-adv-x="2254" d="M78 1366q60 45 142.5 71.5t168.5 26.5q167 0 254.5 -58.5t87.5 -158.5q0 -131 -135 -194q164 -47 164 -199q0 -121 -105 -195.5t-262 -74.5q-192 0 -311 84l53 172q140 -52 232 -52q145 0 145 86q0 41 -31 60.5t-98 19.5h-137v162h121q55 0 83.5 21.5t28.5 60.5 q0 76 -117 76q-91 0 -198 -60zM711 -289l618 1876h178l-616 -1876h-180zM1454 150v167l391 508h209v-497h129v-178h-129v-164h-221v164h-379zM1665 328h166v229z" />
<glyph unicode="&#xbf;" horiz-adv-x="1095" d="M84 -37q0 57 20 107t52.5 88t72.5 74t80 72.5t74 75.5t57 91.5t27 112.5h242q0 -98 -26 -176.5t-63 -127t-74 -88t-63 -80.5t-26 -83q0 -58 49 -89.5t137 -31.5q148 0 272 78l123 -230q-82 -62 -211 -98.5t-268 -36.5q-223 0 -349 94.5t-126 247.5zM406 909 q0 89 52.5 142t135.5 53q84 0 136 -52.5t52 -142.5q0 -88 -52 -139t-136 -51q-83 0 -135.5 51t-52.5 139z" />
<glyph unicode="&#xc0;" d="M57 0l541 1434h334l559 -1434h-373l-88 254h-528l-84 -254h-361zM367 1876h364l125 -305h-184zM592 524h346l-176 510z" />
<glyph unicode="&#xc1;" d="M57 0l541 1434h334l559 -1434h-373l-88 254h-528l-84 -254h-361zM592 524h346l-176 510zM668 1571l123 305h364l-303 -305h-184z" />
<glyph unicode="&#xc2;" d="M57 0l541 1434h334l559 -1434h-373l-88 254h-528l-84 -254h-361zM422 1585l244 295h190l234 -295h-240l-90 113l-88 -113h-250zM592 524h346l-176 510z" />
<glyph unicode="&#xc3;" d="M57 0l541 1434h334l559 -1434h-373l-88 254h-528l-84 -254h-361zM397 1667q24 105 87.5 156t129.5 51q51 0 99 -20.5t84 -41t59 -20.5q31 0 54 25t44 77l174 -73q-29 -103 -86.5 -163.5t-136.5 -60.5q-45 0 -90.5 19.5t-85 39t-70.5 19.5q-71 0 -102 -96zM592 524h346 l-176 510z" />
<glyph unicode="&#xc4;" d="M57 0l541 1434h334l559 -1434h-373l-88 254h-528l-84 -254h-361zM416 1729q0 77 41 113t106 36q60 0 98.5 -36t38.5 -113q0 -73 -39.5 -109.5t-97.5 -36.5q-64 0 -105.5 36.5t-41.5 109.5zM592 524h346l-176 510zM825 1729q0 76 41.5 112.5t104.5 36.5q61 0 100 -36 t39 -113q0 -72 -39.5 -109t-99.5 -37q-62 0 -104 37t-42 109z" />
<glyph unicode="&#xc5;" d="M57 0l541 1434h334l559 -1434h-373l-88 254h-528l-84 -254h-361zM580 1712q0 75 51 124.5t135 49.5t134 -49.5t50 -124.5t-50 -124.5t-134 -49.5t-135 49.5t-51 124.5zM592 524h346l-176 510zM692 1712q0 -30 19 -52t55 -22q35 0 53.5 22t18.5 52t-18.5 52t-53.5 22 q-36 0 -55 -22t-19 -52z" />
<glyph unicode="&#xc6;" horiz-adv-x="2002" d="M57 0l750 1434h1079v-308h-577v-256h491v-305h-491v-274h577v-291h-921v227h-404l-110 -227h-394zM700 516h265v545z" />
<glyph unicode="&#xc7;" horiz-adv-x="1378" d="M104 721q-1 182 55 326t155.5 235t231.5 138.5t288 47.5q141 0 271.5 -37t209.5 -100l-160 -272q-130 92 -307 92q-79 0 -146.5 -27t-119.5 -79t-81.5 -135.5t-29.5 -188.5q0 -109 30.5 -194t83.5 -137.5t120 -79t143 -25.5q178 0 326 118l167 -247q-85 -82 -218 -135 t-292 -56l-32 -65q98 13 152.5 -32.5t54.5 -119.5q0 -103 -80.5 -166t-204.5 -74l-57 132q84 16 115.5 39.5t31.5 56.5q0 17 -11 29t-28 12q-20 0 -39 -13l-104 93l57 118q-121 20 -225 78t-184.5 149.5t-126.5 225t-46 293.5z" />
<glyph unicode="&#xc8;" horiz-adv-x="1234" d="M129 0v1434h987v-293h-643v-271h549v-295h-549v-280h643v-295h-987zM209 1876h364l125 -305h-184z" />
<glyph unicode="&#xc9;" horiz-adv-x="1234" d="M129 0v1434h987v-293h-643v-271h549v-295h-549v-280h643v-295h-987zM508 1571l123 305h364l-303 -305h-184z" />
<glyph unicode="&#xca;" horiz-adv-x="1234" d="M129 0v1434h987v-293h-643v-271h549v-295h-549v-280h643v-295h-987zM262 1585l244 295h190l234 -295h-240l-90 113l-88 -113h-250z" />
<glyph unicode="&#xcb;" horiz-adv-x="1234" d="M129 0v1434h987v-293h-643v-271h549v-295h-549v-280h643v-295h-987zM256 1729q0 77 41 113t106 36q60 0 99 -36.5t39 -112.5q0 -73 -40 -109.5t-98 -36.5q-64 0 -105.5 36.5t-41.5 109.5zM666 1729q0 77 41 113t104 36q61 0 100 -36t39 -113q0 -72 -39.5 -109t-99.5 -37 q-62 0 -103.5 37t-41.5 109z" />
<glyph unicode="&#xcc;" horiz-adv-x="649" d="M-74 1876h365l125 -305h-185zM154 0v1434h342v-1434h-342z" />
<glyph unicode="&#xcd;" horiz-adv-x="649" d="M154 0v1434h342v-1434h-342zM188 1579l111 297h356l-262 -297h-205z" />
<glyph unicode="&#xce;" horiz-adv-x="649" d="M-18 1585l243 295h191l233 -295h-239l-91 113l-88 -113h-249zM154 0v1434h342v-1434h-342z" />
<glyph unicode="&#xcf;" horiz-adv-x="649" d="M-27 1729q0 77 41 113t107 36q60 0 98.5 -36t38.5 -113q0 -73 -39.5 -109.5t-97.5 -36.5q-64 0 -106 36.5t-42 109.5zM154 0v1434h342v-1434h-342zM383 1729q0 77 41 113t104 36q61 0 100.5 -36t39.5 -113q0 -72 -40 -109t-100 -37q-62 0 -103.5 37t-41.5 109z" />
<glyph unicode="&#xd0;" horiz-adv-x="1650" d="M129 606v230h176v598h473q166 0 306.5 -47t244 -135.5t161.5 -223.5t58 -303q0 -225 -101 -391t-274 -250t-395 -84h-473v606h-176zM655 309h146q181 0 280 102t99 314q0 210 -97.5 303.5t-281.5 93.5h-146v-286h226v-230h-226v-297z" />
<glyph unicode="&#xd1;" horiz-adv-x="1519" d="M129 0v1434h291l620 -846v846h351v-1434h-289l-629 836v-836h-344zM391 1688q24 105 87.5 155.5t129.5 50.5q51 0 99 -20.5t84 -41t59 -20.5q31 0 54 25.5t44 77.5l174 -74q-29 -103 -86.5 -163t-136.5 -60q-45 0 -90.5 19.5t-85 39t-70.5 19.5q-70 0 -102 -97z" />
<glyph unicode="&#xd2;" horiz-adv-x="1665" d="M104 731q0 150 40.5 273.5t109 208.5t162 143t198 85t217.5 27q114 0 218.5 -27t198.5 -85t163 -143t109.5 -208.5t40.5 -273.5q0 -153 -40.5 -280.5t-109.5 -216t-162.5 -150t-199 -90.5t-218.5 -29t-217.5 29t-197.5 90.5t-162 150t-109.5 216t-40.5 280.5zM430 1876 h365l125 -305h-185zM471 727q0 -213 99.5 -328.5t260.5 -115.5t261 115t100 329q0 210 -99 317t-262 107t-261.5 -107t-98.5 -317z" />
<glyph unicode="&#xd3;" horiz-adv-x="1665" d="M104 731q0 150 40.5 273.5t109 208.5t162 143t198 85t217.5 27q114 0 218.5 -27t198.5 -85t163 -143t109.5 -208.5t40.5 -273.5q0 -153 -40.5 -280.5t-109.5 -216t-162.5 -150t-199 -90.5t-218.5 -29t-217.5 29t-197.5 90.5t-162 150t-109.5 216t-40.5 280.5zM471 727 q0 -213 99.5 -328.5t260.5 -115.5t261 115t100 329q0 210 -99 317t-262 107t-261.5 -107t-98.5 -317zM729 1571l123 305h365l-304 -305h-184z" />
<glyph unicode="&#xd4;" horiz-adv-x="1665" d="M104 731q0 150 40.5 273.5t109 208.5t162 143t198 85t217.5 27q114 0 218.5 -27t198.5 -85t163 -143t109.5 -208.5t40.5 -273.5q0 -153 -40.5 -280.5t-109.5 -216t-162.5 -150t-199 -90.5t-218.5 -29t-217.5 29t-197.5 90.5t-162 150t-109.5 216t-40.5 280.5zM471 727 q0 -213 99.5 -328.5t260.5 -115.5t261 115t100 329q0 210 -99 317t-262 107t-261.5 -107t-98.5 -317zM483 1585l244 295h191l233 -295h-240l-90 113l-88 -113h-250z" />
<glyph unicode="&#xd5;" horiz-adv-x="1665" d="M104 731q0 150 40.5 273.5t109 208.5t162 143t198 85t217.5 27q114 0 218.5 -27t198.5 -85t163 -143t109.5 -208.5t40.5 -273.5q0 -153 -40.5 -280.5t-109.5 -216t-162.5 -150t-199 -90.5t-218.5 -29t-217.5 29t-197.5 90.5t-162 150t-109.5 216t-40.5 280.5zM459 1667 q24 105 87.5 156t129.5 51q51 0 99 -20.5t84 -41t59 -20.5q31 0 54 25t44 77l174 -73q-29 -103 -86.5 -163.5t-136.5 -60.5q-45 0 -90.5 19.5t-85 39t-70.5 19.5q-72 0 -103 -96zM471 727q0 -213 99.5 -328.5t260.5 -115.5t261 115t100 329q0 210 -99 317t-262 107 t-261.5 -107t-98.5 -317z" />
<glyph unicode="&#xd6;" horiz-adv-x="1665" d="M104 731q0 150 40.5 273.5t109 208.5t162 143t198 85t217.5 27q114 0 218.5 -27t198.5 -85t163 -143t109.5 -208.5t40.5 -273.5q0 -153 -40.5 -280.5t-109.5 -216t-162.5 -150t-199 -90.5t-218.5 -29t-217.5 29t-197.5 90.5t-162 150t-109.5 216t-40.5 280.5zM471 727 q0 -213 99.5 -328.5t260.5 -115.5t261 115t100 329q0 210 -99 317t-262 107t-261.5 -107t-98.5 -317zM477 1729q0 77 41 113t107 36q60 0 98.5 -36t38.5 -113q0 -73 -39.5 -109.5t-97.5 -36.5q-64 0 -106 36.5t-42 109.5zM887 1729q0 77 41 113t104 36q61 0 100 -36t39 -113 q0 -72 -39.5 -109t-99.5 -37q-62 0 -103.5 37t-41.5 109z" />
<glyph unicode="&#xd7;" horiz-adv-x="1234" d="M78 922l155 153l385 -383l383 383l154 -153l-383 -381l383 -381l-154 -152l-385 381l-383 -379l-153 150l383 381z" />
<glyph unicode="&#xd8;" horiz-adv-x="1617" d="M104 731q0 150 40.5 273.5t109 208.5t162 143t198 85t217.5 27q141 0 269 -43l129 230l174 -90l-127 -226q133 -93 209 -245t76 -363q0 -153 -40.5 -280.5t-109.5 -216t-162.5 -150t-199 -90.5t-218.5 -29q-156 0 -296 58l-148 -265l-170 107l145 258q-121 98 -189.5 251 t-68.5 357zM471 727q0 -172 70 -289l395 701q-50 12 -105 12q-163 0 -261.5 -107t-98.5 -317zM696 307q62 -24 135 -24q161 0 261 115t100 329q0 193 -88 305z" />
<glyph unicode="&#xd9;" horiz-adv-x="1447" d="M129 520v914h344v-902q0 -122 64.5 -185.5t187.5 -63.5q120 0 185 64t65 185v902h344v-914q0 -147 -46.5 -257t-130 -173.5t-187.5 -94t-230 -30.5q-101 0 -187.5 18.5t-163 60.5t-130 105t-84.5 157.5t-31 213.5zM315 1876h365l125 -305h-184z" />
<glyph unicode="&#xda;" horiz-adv-x="1447" d="M129 520v914h344v-902q0 -122 64.5 -185.5t187.5 -63.5q120 0 185 64t65 185v902h344v-914q0 -147 -46.5 -257t-130 -173.5t-187.5 -94t-230 -30.5q-101 0 -187.5 18.5t-163 60.5t-130 105t-84.5 157.5t-31 213.5zM616 1571l123 305h365l-303 -305h-185z" />
<glyph unicode="&#xdb;" horiz-adv-x="1447" d="M129 520v914h344v-902q0 -122 64.5 -185.5t187.5 -63.5q120 0 185 64t65 185v902h344v-914q0 -147 -46.5 -257t-130 -173.5t-187.5 -94t-230 -30.5q-101 0 -187.5 18.5t-163 60.5t-130 105t-84.5 157.5t-31 213.5zM371 1585l243 295h191l233 -295h-239l-90 113l-88 -113 h-250z" />
<glyph unicode="&#xdc;" horiz-adv-x="1447" d="M129 520v914h344v-902q0 -122 64.5 -185.5t187.5 -63.5q120 0 185 64t65 185v902h344v-914q0 -147 -46.5 -257t-130 -173.5t-187.5 -94t-230 -30.5q-101 0 -187.5 18.5t-163 60.5t-130 105t-84.5 157.5t-31 213.5zM362 1729q0 77 41 113t107 36q60 0 98.5 -36t38.5 -113 q0 -73 -39.5 -109.5t-97.5 -36.5q-64 0 -106 36.5t-42 109.5zM772 1729q0 76 41.5 112.5t104.5 36.5q61 0 100 -36t39 -113q0 -72 -39.5 -109t-99.5 -37q-62 0 -104 37t-42 109z" />
<glyph unicode="&#xdd;" horiz-adv-x="1355" d="M0 1434h397l285 -531l287 531h370l-497 -865v-569h-344v571zM600 1571l123 305h364l-303 -305h-184z" />
<glyph unicode="&#xde;" horiz-adv-x="1220" d="M129 0v1434h350v-213h195q127 0 226 -39t158 -106t89.5 -150t30.5 -178q0 -209 -132.5 -341.5t-373.5 -132.5h-193v-274h-350zM479 569h154q70 0 124 46t54 133q0 80 -48.5 122.5t-129.5 42.5h-154v-344z" />
<glyph unicode="&#xdf;" horiz-adv-x="1339" d="M121 0v1145q0 197 117.5 309.5t365.5 112.5q243 0 376.5 -103t133.5 -290q0 -69 -19 -125.5t-46.5 -91t-55 -62t-46.5 -50.5t-19 -42q0 -21 24.5 -42.5t61.5 -40t80 -49.5t80 -67t61.5 -96t24.5 -133q0 -196 -122 -298t-339 -102q-154 0 -252 37l49 236q108 -19 162 -19 q77 0 122.5 42.5t45.5 103.5q0 41 -17.5 74.5t-45.5 55.5t-61.5 42t-67 41.5t-61.5 46t-45.5 61.5t-17.5 84q0 45 17.5 82t42.5 63.5t50 52t42.5 60t17.5 76.5q0 81 -42.5 121.5t-121.5 40.5q-72 0 -113.5 -41t-41.5 -129v-1106h-340z" />
<glyph unicode="&#xe0;" horiz-adv-x="1202" d="M84 313q0 158 115.5 238t306.5 80q116 0 209 -19v62q0 96 -46.5 133t-138.5 37q-173 0 -278 -88l-123 200q85 73 205 112.5t237 39.5q471 0 471 -406v-397q0 -76 54 -76h57l-25 -213q-49 -39 -163 -39q-147 0 -197 109q-125 -121 -307 -121q-164 0 -270.5 88.5 t-106.5 259.5zM188 1530h365l125 -305h-184zM387 324q0 -64 39 -91.5t98 -27.5q141 0 195 102v113q-68 20 -174 20q-158 0 -158 -116z" />
<glyph unicode="&#xe1;" horiz-adv-x="1202" d="M84 313q0 158 115.5 238t306.5 80q116 0 209 -19v62q0 96 -46.5 133t-138.5 37q-173 0 -278 -88l-123 200q85 73 205 112.5t237 39.5q471 0 471 -406v-397q0 -76 54 -76h57l-25 -213q-49 -39 -163 -39q-147 0 -197 109q-125 -121 -307 -121q-164 0 -270.5 88.5 t-106.5 259.5zM387 324q0 -64 39 -91.5t98 -27.5q141 0 195 102v113q-68 20 -174 20q-158 0 -158 -116zM489 1225l123 305h365l-303 -305h-185z" />
<glyph unicode="&#xe2;" horiz-adv-x="1202" d="M84 313q0 158 115.5 238t306.5 80q116 0 209 -19v62q0 96 -46.5 133t-138.5 37q-173 0 -278 -88l-123 200q85 73 205 112.5t237 39.5q471 0 471 -406v-397q0 -76 54 -76h57l-25 -213q-49 -39 -163 -39q-147 0 -197 109q-125 -121 -307 -121q-164 0 -270.5 88.5 t-106.5 259.5zM244 1239l243 295h191l233 -295h-239l-90 113l-88 -113h-250zM387 324q0 -64 39 -91.5t98 -27.5q141 0 195 102v113q-68 20 -174 20q-158 0 -158 -116z" />
<glyph unicode="&#xe3;" horiz-adv-x="1202" d="M84 313q0 158 115.5 238t306.5 80q116 0 209 -19v62q0 96 -46.5 133t-138.5 37q-173 0 -278 -88l-123 200q85 73 205 112.5t237 39.5q471 0 471 -406v-397q0 -76 54 -76h57l-25 -213q-49 -39 -163 -39q-147 0 -197 109q-125 -121 -307 -121q-164 0 -270.5 88.5 t-106.5 259.5zM219 1321q24 105 87.5 156t129.5 51q51 0 99 -20.5t84 -41t59 -20.5q31 0 54 25t44 77l174 -73q-29 -103 -86.5 -163.5t-136.5 -60.5q-45 0 -90.5 19.5t-85 39t-70.5 19.5q-71 0 -102 -96zM387 324q0 -64 39 -91.5t98 -27.5q141 0 195 102v113q-68 20 -174 20 q-158 0 -158 -116z" />
<glyph unicode="&#xe4;" horiz-adv-x="1202" d="M84 313q0 158 115.5 238t306.5 80q116 0 209 -19v62q0 96 -46.5 133t-138.5 37q-173 0 -278 -88l-123 200q85 73 205 112.5t237 39.5q471 0 471 -406v-397q0 -76 54 -76h57l-25 -213q-49 -39 -163 -39q-147 0 -197 109q-125 -121 -307 -121q-164 0 -270.5 88.5 t-106.5 259.5zM238 1382q0 77 41 113.5t106 36.5q59 0 98 -36.5t39 -113.5q0 -73 -39.5 -109t-97.5 -36q-65 0 -106 36t-41 109zM387 324q0 -64 39 -91.5t98 -27.5q141 0 195 102v113q-68 20 -174 20q-158 0 -158 -116zM647 1382q0 77 41.5 113.5t104.5 36.5q61 0 100 -36.5 t39 -113.5q0 -72 -39.5 -108.5t-99.5 -36.5q-62 0 -104 36.5t-42 108.5z" />
<glyph unicode="&#xe5;" horiz-adv-x="1202" d="M84 313q0 158 115.5 238t306.5 80q116 0 209 -19v62q0 96 -46.5 133t-138.5 37q-173 0 -278 -88l-123 200q85 73 205 112.5t237 39.5q471 0 471 -406v-397q0 -76 54 -76h57l-25 -213q-49 -39 -163 -39q-147 0 -197 109q-125 -121 -307 -121q-164 0 -270.5 88.5 t-106.5 259.5zM387 324q0 -64 39 -91.5t98 -27.5q141 0 195 102v113q-68 20 -174 20q-158 0 -158 -116zM401 1366q0 75 51 124.5t136 49.5q84 0 134 -49.5t50 -124.5t-50 -124.5t-134 -49.5q-85 0 -136 49.5t-51 124.5zM514 1366q0 -30 19 -52t55 -22q34 0 52.5 22t18.5 52 t-18.5 52t-52.5 22q-36 0 -55 -22t-19 -52z" />
<glyph unicode="&#xe6;" horiz-adv-x="1828" d="M84 317q0 160 121.5 242t316.5 82q120 0 203 -18v61q0 150 -188 150q-162 0 -281 -78l-123 202q186 140 436 140q128 0 215 -39.5t140 -134.5q131 174 387 174q202 0 326 -134t124 -339q0 -100 -16 -189h-678q20 -103 85 -150.5t175 -47.5q159 0 272 75l113 -184 q-62 -78 -179 -116t-237 -38q-123 0 -226.5 47.5t-172.5 141.5q-162 -189 -436 -189q-163 0 -270 89t-107 253zM393 332q0 -57 38.5 -84t92.5 -27q69 0 128.5 32t78.5 79v96q-86 16 -168 16q-170 0 -170 -112zM1063 639h393q-10 112 -56 160.5t-132 48.5q-85 0 -137.5 -52.5 t-67.5 -156.5z" />
<glyph unicode="&#xe7;" horiz-adv-x="1093" d="M82 541q0 133 44 242t118 179t170 108t202 38q246 0 398 -131l-121 -227q-100 77 -227 77q-112 0 -184 -74.5t-72 -209.5q0 -133 72.5 -214t181.5 -81q136 0 241 88l135 -213q-146 -149 -385 -158l-32 -65q98 13 152 -32.5t54 -119.5q0 -103 -80 -166t-204 -74l-58 132 q84 16 116 39.5t32 56.5q0 17 -11 29t-28 12q-20 0 -39 -13l-104 93l59 120q-189 38 -309.5 187.5t-120.5 376.5z" />
<glyph unicode="&#xe8;" horiz-adv-x="1173" d="M82 532q0 254 145 415t377 161q123 0 221 -42.5t158 -114t91.5 -159.5t31.5 -186q0 -99 -16 -170h-682q40 -209 254 -209q150 0 274 99l123 -215q-178 -146 -445 -146q-113 0 -208.5 35.5t-168.5 104t-114 178t-41 249.5zM205 1516h364l125 -306h-184zM406 641h399 q-4 103 -55 159t-138 56t-139.5 -51t-66.5 -164z" />
<glyph unicode="&#xe9;" horiz-adv-x="1173" d="M82 532q0 254 145 415t377 161q123 0 221 -42.5t158 -114t91.5 -159.5t31.5 -186q0 -99 -16 -170h-682q40 -209 254 -209q150 0 274 99l123 -215q-178 -146 -445 -146q-113 0 -208.5 35.5t-168.5 104t-114 178t-41 249.5zM406 641h399q-4 103 -55 159t-138 56t-139.5 -51 t-66.5 -164zM506 1210l123 306h364l-303 -306h-184z" />
<glyph unicode="&#xea;" horiz-adv-x="1173" d="M82 532q0 254 145 415t377 161q123 0 221 -42.5t158 -114t91.5 -159.5t31.5 -186q0 -99 -16 -170h-682q40 -209 254 -209q150 0 274 99l123 -215q-178 -146 -445 -146q-113 0 -208.5 35.5t-168.5 104t-114 178t-41 249.5zM260 1225l244 295h190l234 -295h-240l-90 112 l-88 -112h-250zM406 641h399q-4 103 -55 159t-138 56t-139.5 -51t-66.5 -164z" />
<glyph unicode="&#xeb;" horiz-adv-x="1173" d="M82 532q0 254 145 415t377 161q123 0 221 -42.5t158 -114t91.5 -159.5t31.5 -186q0 -99 -16 -170h-682q40 -209 254 -209q150 0 274 99l123 -215q-178 -146 -445 -146q-113 0 -208.5 35.5t-168.5 104t-114 178t-41 249.5zM252 1368q0 77 41 113.5t106 36.5q60 0 99 -36.5 t39 -113.5q0 -73 -40 -109t-98 -36q-65 0 -106 36t-41 109zM406 641h399q-4 103 -55 159t-138 56t-139.5 -51t-66.5 -164zM662 1368q0 77 41 113.5t104 36.5q61 0 100 -36.5t39 -113.5q0 -72 -39.5 -108.5t-99.5 -36.5q-62 0 -103.5 36.5t-41.5 108.5z" />
<glyph unicode="&#xec;" horiz-adv-x="587" d="M-111 1516h365l125 -306h-184zM129 0v1073h328v-1073h-328z" />
<glyph unicode="&#xed;" horiz-adv-x="587" d="M129 0v1073h328v-1073h-328zM190 1210l123 306h365l-303 -306h-185z" />
<glyph unicode="&#xee;" horiz-adv-x="587" d="M-55 1225l243 295h191l233 -295h-239l-90 112l-88 -112h-250zM129 0v1073h328v-1073h-328z" />
<glyph unicode="&#xef;" horiz-adv-x="587" d="M-63 1368q0 77 41 113.5t106 36.5q59 0 98 -36.5t39 -113.5q0 -73 -39.5 -109t-97.5 -36q-65 0 -106 36t-41 109zM129 0v1073h328v-1073h-328zM346 1368q0 77 41.5 113.5t104.5 36.5q61 0 100 -36.5t39 -113.5q0 -72 -39.5 -108.5t-99.5 -36.5q-62 0 -104 36.5t-42 108.5 z" />
<glyph unicode="&#xf0;" horiz-adv-x="1263" d="M82 553q0 136 39 243.5t106.5 174.5t153.5 102t184 35q156 0 269 -113q-50 133 -162 238l-189 -86l-61 110l139 64q-42 29 -117 65l187 170q110 -55 188 -116l180 84l62 -113l-137 -63q260 -263 260 -707q0 -323 -146 -499.5t-409 -176.5q-115 0 -212 35.5t-173 105.5 t-119 184.5t-43 262.5zM414 532q0 -129 56.5 -200.5t160.5 -71.5q102 0 160.5 72t58.5 200t-59.5 200.5t-161.5 72.5q-104 0 -159.5 -71.5t-55.5 -201.5z" />
<glyph unicode="&#xf1;" horiz-adv-x="1261" d="M121 0v1073h221l51 -155h10q77 99 163.5 144.5t199.5 45.5q174 0 274.5 -98t100.5 -275v-735h-328v627q0 90 -34.5 128t-98.5 38q-122 0 -231 -148v-645h-328zM256 1321q24 105 87.5 156t129.5 51q51 0 99 -20.5t84 -41t59 -20.5q31 0 54 25t44 77l174 -73 q-29 -103 -86.5 -163.5t-136.5 -60.5q-45 0 -90.5 19.5t-85 39t-70.5 19.5q-71 0 -102 -96z" />
<glyph unicode="&#xf2;" horiz-adv-x="1286" d="M82 537q0 116 31 211.5t84 161.5t125.5 111t153 66t167.5 21t167.5 -21t153 -66t125.5 -111t84 -161.5t31 -211.5q0 -144 -47 -256t-127 -179.5t-178.5 -102t-208.5 -34.5t-208.5 34.5t-178.5 102t-127 179.5t-47 256zM240 1516h364l125 -306h-184zM414 537 q0 -136 59.5 -209.5t169.5 -73.5q109 0 169 73.5t60 209.5t-60 209t-169 73q-110 0 -169.5 -73t-59.5 -209z" />
<glyph unicode="&#xf3;" horiz-adv-x="1286" d="M82 537q0 116 31 211.5t84 161.5t125.5 111t153 66t167.5 21t167.5 -21t153 -66t125.5 -111t84 -161.5t31 -211.5q0 -144 -47 -256t-127 -179.5t-178.5 -102t-208.5 -34.5t-208.5 34.5t-178.5 102t-127 179.5t-47 256zM414 537q0 -136 59.5 -209.5t169.5 -73.5 q109 0 169 73.5t60 209.5t-60 209t-169 73q-110 0 -169.5 -73t-59.5 -209zM541 1210l123 306h364l-303 -306h-184z" />
<glyph unicode="&#xf4;" horiz-adv-x="1286" d="M82 537q0 116 31 211.5t84 161.5t125.5 111t153 66t167.5 21t167.5 -21t153 -66t125.5 -111t84 -161.5t31 -211.5q0 -144 -47 -256t-127 -179.5t-178.5 -102t-208.5 -34.5t-208.5 34.5t-178.5 102t-127 179.5t-47 256zM295 1225l244 295h190l234 -295h-240l-90 112 l-88 -112h-250zM414 537q0 -136 59.5 -209.5t169.5 -73.5q109 0 169 73.5t60 209.5t-60 209t-169 73q-110 0 -169.5 -73t-59.5 -209z" />
<glyph unicode="&#xf5;" horiz-adv-x="1286" d="M82 537q0 116 31 211.5t84 161.5t125.5 111t153 66t167.5 21t167.5 -21t153 -66t125.5 -111t84 -161.5t31 -211.5q0 -144 -47 -256t-127 -179.5t-178.5 -102t-208.5 -34.5t-208.5 34.5t-178.5 102t-127 179.5t-47 256zM270 1307q24 105 87.5 155.5t129.5 50.5 q51 0 99 -20.5t84 -40.5t59 -20q31 0 54 25t44 77l174 -74q-29 -103 -86.5 -163t-136.5 -60q-45 0 -90.5 19.5t-85 39t-70.5 19.5q-71 0 -102 -96zM414 537q0 -136 59.5 -209.5t169.5 -73.5q109 0 169 73.5t60 209.5t-60 209t-169 73q-110 0 -169.5 -73t-59.5 -209z" />
<glyph unicode="&#xf6;" horiz-adv-x="1286" d="M82 537q0 116 31 211.5t84 161.5t125.5 111t153 66t167.5 21t167.5 -21t153 -66t125.5 -111t84 -161.5t31 -211.5q0 -144 -47 -256t-127 -179.5t-178.5 -102t-208.5 -34.5t-208.5 34.5t-178.5 102t-127 179.5t-47 256zM287 1368q0 77 41 113.5t106 36.5q59 0 98 -36.5 t39 -113.5q0 -73 -39.5 -109t-97.5 -36q-65 0 -106 36t-41 109zM414 537q0 -136 59.5 -209.5t169.5 -73.5q109 0 169 73.5t60 209.5t-60 209t-169 73q-110 0 -169.5 -73t-59.5 -209zM696 1368q0 77 41.5 113.5t104.5 36.5q61 0 100 -36.5t39 -113.5q0 -72 -39.5 -108.5 t-99.5 -36.5q-62 0 -104 36.5t-42 108.5z" />
<glyph unicode="&#xf7;" horiz-adv-x="862" d="M-10 449v184h946v-184h-946zM305 160q0 71 43 108t105 37t103.5 -37t41.5 -108q0 -70 -42 -108t-103 -38t-104.5 38t-43.5 108zM305 932q0 72 43 109.5t105 37.5t103.5 -37.5t41.5 -109.5q0 -70 -42 -108t-103 -38t-104.5 38t-43.5 108z" />
<glyph unicode="&#xf8;" horiz-adv-x="1286" d="M82 537q0 116 31 211.5t84 161.5t125.5 111t153 66t167.5 21q113 0 203 -33l104 207l152 -78l-117 -196q102 -73 160.5 -191t58.5 -280q0 -144 -47 -256t-127 -179.5t-178.5 -102t-208.5 -34.5q-117 0 -209 35l-112 -213l-148 90l119 195q-98 71 -154.5 188.5 t-56.5 276.5zM414 537q0 -121 45 -189l252 463q-27 8 -68 8q-110 0 -169.5 -73t-59.5 -209zM575 262q27 -8 68 -8q109 0 169 73.5t60 209.5q0 119 -47 190z" />
<glyph unicode="&#xf9;" horiz-adv-x="1245" d="M121 354v719h325v-643q0 -88 36.5 -125t103.5 -37q133 0 213 150v655h325v-1073h-219l-59 141q-59 -78 -138 -122t-202 -44q-183 0 -284 100.5t-101 278.5zM231 1516h365l125 -306h-184z" />
<glyph unicode="&#xfa;" horiz-adv-x="1245" d="M121 354v719h325v-643q0 -88 36.5 -125t103.5 -37q133 0 213 150v655h325v-1073h-219l-59 141q-59 -78 -138 -122t-202 -44q-183 0 -284 100.5t-101 278.5zM530 1210l123 306h365l-303 -306h-185z" />
<glyph unicode="&#xfb;" horiz-adv-x="1245" d="M121 354v719h325v-643q0 -88 36.5 -125t103.5 -37q133 0 213 150v655h325v-1073h-219l-59 141q-59 -78 -138 -122t-202 -44q-183 0 -284 100.5t-101 278.5zM285 1225l243 295h191l233 -295h-239l-90 112l-88 -112h-250z" />
<glyph unicode="&#xfc;" horiz-adv-x="1245" d="M121 354v719h325v-643q0 -88 36.5 -125t103.5 -37q133 0 213 150v655h325v-1073h-219l-59 141q-59 -78 -138 -122t-202 -44q-183 0 -284 100.5t-101 278.5zM279 1368q0 77 41 113.5t106 36.5q59 0 98 -36.5t39 -113.5q0 -73 -39.5 -109t-97.5 -36q-65 0 -106 36t-41 109z M688 1368q0 77 41.5 113.5t104.5 36.5q61 0 100 -36.5t39 -113.5q0 -72 -39.5 -108.5t-99.5 -36.5q-62 0 -104 36.5t-42 108.5z" />
<glyph unicode="&#xfd;" horiz-adv-x="1255" d="M33 1077h342l252 -755l229 755h354l-405 -1147q-68 -192 -174 -281t-269 -89q-98 0 -159.5 11t-128.5 32l57 243q83 -26 170 -26q48 0 89.5 27t64.5 85l14 33zM514 1225l123 305h364l-303 -305h-184z" />
<glyph unicode="&#xfe;" horiz-adv-x="1247" d="M121 -438v1872h323v-451h7q115 115 274 115q88 0 166.5 -34.5t140 -100t97.5 -170.5t36 -236q0 -133 -39 -243.5t-107 -184t-159 -114t-194 -40.5q-132 0 -217 37v-450h-328zM449 276q55 -36 141 -36q106 0 173.5 76.5t67.5 222.5q0 133 -54 201.5t-134 68.5 q-102 0 -194 -111v-422z" />
<glyph unicode="&#xff;" horiz-adv-x="1255" d="M33 1077h342l252 -755l229 755h354l-405 -1147q-68 -192 -174 -281t-269 -89q-98 0 -159.5 11t-128.5 32l57 243q83 -26 170 -26q48 0 89.5 27t64.5 85l14 33zM260 1382q0 77 41.5 113.5t106.5 36.5q59 0 98 -36.5t39 -113.5q0 -73 -39.5 -109t-97.5 -36 q-65 0 -106.5 36.5t-41.5 108.5zM670 1382q0 77 41 113.5t104 36.5q61 0 100 -36.5t39 -113.5q0 -72 -39.5 -108.5t-99.5 -36.5q-62 0 -103.5 36.5t-41.5 108.5z" />
<glyph unicode="&#x152;" horiz-adv-x="1882" d="M104 725q0 145 40.5 263t111.5 200t169.5 138t212.5 82t243 26h882v-312h-561v-260h500v-276h-500v-275h561v-311h-876q-130 0 -246 27.5t-214.5 85.5t-170 142t-112 204.5t-40.5 265.5zM465 725q0 -201 101.5 -310.5t277.5 -109.5h6v838h-6q-176 0 -277.5 -108.5 t-101.5 -309.5z" />
<glyph unicode="&#x153;" horiz-adv-x="1957" d="M82 537q0 137 44.5 246.5t118.5 177t165.5 102.5t191.5 35q278 0 408 -197q127 197 393 197q118 0 213 -39.5t153.5 -106t89.5 -151t31 -178.5q0 -111 -16 -191h-672q40 -194 256 -194q153 0 266 75l117 -184q-64 -80 -179.5 -117t-236.5 -37q-124 0 -234 47t-183 150 q-131 -197 -406 -197q-100 0 -191.5 35.5t-165.5 102.5t-118.5 177t-44.5 247zM414 537q0 -129 55.5 -201t155.5 -72q108 0 165.5 71.5t57.5 201.5t-57 201t-164 71q-101 0 -157 -71.5t-56 -200.5zM1198 651h387q-9 95 -59 146t-133 51q-79 0 -130.5 -50.5t-64.5 -146.5z " />
<glyph unicode="&#x178;" horiz-adv-x="1355" d="M0 1434h397l285 -531l287 531h370l-497 -865v-569h-344v571zM346 1729q0 77 41 113t107 36q60 0 98.5 -36t38.5 -113q0 -73 -39.5 -109.5t-97.5 -36.5q-64 0 -106 36.5t-42 109.5zM756 1729q0 77 41 113t104 36q61 0 100 -36t39 -113q0 -72 -39.5 -109t-99.5 -37 q-62 0 -103.5 37t-41.5 109z" />
<glyph unicode="&#x2c6;" horiz-adv-x="772" d="M53 1225l244 295h190l234 -295h-240l-90 112l-88 -112h-250z" />
<glyph unicode="&#x2dc;" horiz-adv-x="772" d="M29 1307q24 105 87.5 155.5t129.5 50.5q51 0 98.5 -20.5t83.5 -40.5t59 -20q31 0 54.5 25t44.5 77l174 -74q-29 -103 -86.5 -163t-136.5 -60q-45 0 -90.5 19.5t-85 39t-70.5 19.5q-72 0 -103 -96z" />
<glyph unicode="&#x2000;" horiz-adv-x="957" />
<glyph unicode="&#x2001;" horiz-adv-x="1915" />
<glyph unicode="&#x2002;" horiz-adv-x="957" />
<glyph unicode="&#x2003;" horiz-adv-x="1915" />
<glyph unicode="&#x2004;" horiz-adv-x="638" />
<glyph unicode="&#x2005;" horiz-adv-x="478" />
<glyph unicode="&#x2006;" horiz-adv-x="319" />
<glyph unicode="&#x2007;" horiz-adv-x="319" />
<glyph unicode="&#x2008;" horiz-adv-x="239" />
<glyph unicode="&#x2009;" horiz-adv-x="383" />
<glyph unicode="&#x200a;" horiz-adv-x="106" />
<glyph unicode="&#x2010;" horiz-adv-x="933" d="M121 487v269h690v-269h-690z" />
<glyph unicode="&#x2011;" horiz-adv-x="933" d="M121 487v269h690v-269h-690z" />
<glyph unicode="&#x2012;" horiz-adv-x="933" d="M121 487v269h690v-269h-690z" />
<glyph unicode="&#x2013;" horiz-adv-x="1177" d="M115 393v287h950v-287h-950z" />
<glyph unicode="&#x2014;" horiz-adv-x="1816" d="M156 393v287h1519v-287h-1519z" />
<glyph unicode="&#x2018;" horiz-adv-x="546" d="M45 1100q0 211 219 379l148 -56q-55 -55 -78.5 -91t-36.5 -79q75 -10 114.5 -59t39.5 -117q0 -103 -56 -156t-145 -53q-84 0 -144.5 61.5t-60.5 170.5z" />
<glyph unicode="&#x2019;" horiz-adv-x="571" d="M111 1270q0 103 56 156t144 53q85 0 145 -61t60 -171q0 -216 -217 -379l-147 56q55 57 78.5 92.5t35.5 79.5q-75 12 -115 59.5t-40 114.5z" />
<glyph unicode="&#x201a;" horiz-adv-x="546" d="M96 158q0 92 55 145t140 53q90 0 149.5 -60t59.5 -171q0 -253 -234 -410l-137 39q102 102 135 217q-68 2 -118 48.5t-50 138.5z" />
<glyph unicode="&#x201c;" horiz-adv-x="1019" d="M78 1055q0 251 233 407l138 -39q-110 -110 -134 -217q66 -2 116 -47t50 -137q0 -93 -55 -147t-139 -54q-90 0 -149.5 61t-59.5 173zM553 1055q0 251 233 407l138 -39q-107 -107 -136 -217q67 -2 117.5 -47.5t50.5 -136.5q0 -92 -55.5 -146.5t-138.5 -54.5 q-90 0 -149.5 61t-59.5 173z" />
<glyph unicode="&#x201d;" horiz-adv-x="1019" d="M63 1264q0 92 56 145t141 53q89 0 149 -60.5t60 -170.5q0 -254 -236 -410l-135 41q103 103 133 215q-67 0 -117.5 47.5t-50.5 139.5zM539 1264q0 92 55.5 145t140.5 53q89 0 149 -60.5t60 -170.5q0 -252 -235 -410l-138 41q106 102 136 215q-67 2 -117.5 48.5 t-50.5 138.5z" />
<glyph unicode="&#x201e;" horiz-adv-x="1019" d="M63 158q0 92 56 145t141 53q89 0 149 -60.5t60 -170.5q0 -254 -236 -410l-135 39q103 103 133 217q-67 0 -117.5 47t-50.5 140zM539 158q0 92 55.5 145t140.5 53q89 0 149 -60.5t60 -170.5q0 -252 -235 -410l-138 39q106 103 136 217q-68 2 -118 48t-50 139z" />
<glyph unicode="&#x2022;" horiz-adv-x="458" d="M106 586q0 78 44.5 117.5t107.5 39.5q64 0 111 -40t47 -117q0 -73 -48 -114.5t-110 -41.5t-107 41t-45 115z" />
<glyph unicode="&#x2026;" horiz-adv-x="1830" d="M150 168q0 99 58.5 150t141.5 51t141 -51t58 -150q0 -102 -58 -154.5t-141 -52.5t-141.5 52.5t-58.5 154.5zM715 168q0 98 59.5 149.5t138.5 51.5q83 0 141 -51t58 -150q0 -102 -58 -154.5t-141 -52.5q-79 0 -138.5 53t-59.5 154zM1280 168q0 98 60 149.5t139 51.5 q83 0 142.5 -51t59.5 -150q0 -102 -59.5 -154.5t-142.5 -52.5q-79 0 -139 53t-60 154z" />
<glyph unicode="&#x202f;" horiz-adv-x="383" />
<glyph unicode="&#x2039;" horiz-adv-x="606" d="M57 518l344 424l148 -121l-252 -301l252 -303l-139 -121z" />
<glyph unicode="&#x203a;" horiz-adv-x="612" d="M61 217l252 303l-252 301l148 121l344 -424l-352 -422z" />
<glyph unicode="&#x205f;" horiz-adv-x="478" />
<glyph unicode="&#x20ac;" horiz-adv-x="1490" d="M104 487v168h132q-3 35 -3 68q0 32 3 59h-132v168h154q60 249 245.5 378.5t446.5 129.5q146 0 275 -41.5t205 -111.5l-177 -234q-134 90 -299 90q-110 0 -196 -54t-129 -157h569l-35 -168h-571q-2 -14 -2 -43q0 -30 4 -84h543l-35 -168h-461q47 -99 130 -151.5t187 -52.5 q186 0 326 116l164 -219q-81 -89 -217 -146t-305 -57q-115 0 -219.5 31.5t-193.5 93t-155.5 160.5t-97.5 225h-156z" />
<glyph unicode="&#x2122;" horiz-adv-x="1914" d="M100 1190v244h750v-244h-250v-672h-256v672h-244zM913 518v916h226l252 -371l303 371h168v-916h-256v461l-179 -250h-90l-176 246v-457h-248z" />
<glyph unicode="&#xe000;" horiz-adv-x="1075" d="M0 0v1075h1075v-1075h-1075z" />
<glyph unicode="&#xfb01;" horiz-adv-x="1257" d="M43 795v278h139v121q0 97 30.5 169t86 114.5t126.5 63t159 20.5q92 0 167 -15.5t113 -32t88 -45.5l-116 -223q-83 62 -181 62q-145 0 -145 -125v-109h616v-1073h-325v795h-291v-795h-328v795h-139z" />
<glyph unicode="&#xfb02;" horiz-adv-x="1386" d="M39 799v274h139v109q0 175 130.5 290t367.5 115q260 0 394 -113t134 -354v-1120h-334v1120q0 90 -43 149.5t-139 59.5q-88 0 -134 -42.5t-46 -137.5v-76h223v-274h-223v-799h-330v799h-139z" />
<glyph unicode="&#xfb03;" horiz-adv-x="1931" d="M43 795v278h139v152q0 164 102.5 263t297.5 99q139 0 211 -37l-50 -233q-52 14 -110 14q-123 0 -123 -119v-139h346v121q0 97 30.5 169t85.5 114.5t126 63t159 20.5q92 0 167.5 -15.5t114 -32.5t87.5 -45l-117 -223q-83 62 -180 62q-145 0 -145 -125v-109h616v-1073h-325 v795h-291v-795h-328v795h-346v-795h-328v795h-139z" />
<glyph unicode="&#xfb04;" horiz-adv-x="2029" d="M43 795v278h139v152q0 164 102.5 263t297.5 99q139 0 211 -37l-50 -233q-52 14 -110 14q-123 0 -123 -119v-139h354v109q0 175 130.5 290t367.5 115q260 0 394 -113t134 -354v-1120h-334v1120q0 90 -43 149.5t-139 59.5q-88 0 -134 -42.5t-46 -137.5v-76h223v-274h-223 v-799h-330v795h-354v-795h-328v795h-139z" />
</font>
</defs>
</svg>
